P2
# 5x5 PGM Sample
5 5
255
0 31 63 95 127 
31 63 95 127 159 
63 95 127 159 191 
95 127 159 191 223 
127 159 191 223 255 
